<svg width="28" height="28" viewBox="0 0 28 28" fill="none" xmlns="http://www.w3.org/2000/svg">
<path d="M12.7749 1.245L1.2249 12.795C1.0499 12.97 0.925652 13.1596 0.852152 13.3637C0.779819 13.5679 0.743652 13.7867 0.743652 14.02C0.743652 14.2533 0.779819 14.4721 0.852152 14.6762C0.925652 14.8804 1.0499 15.07 1.2249 15.245L12.7749 26.795C13.0957 27.1158 13.4965 27.2838 13.9772 27.299C14.459 27.313 14.8749 27.145 15.2249 26.795C15.5749 26.4742 15.7575 26.0734 15.7727 25.5927C15.7867 25.1109 15.6187 24.695 15.2687 24.345L6.69365 15.77L26.2499 15.77C26.7457 15.77 27.1617 15.6026 27.4977 15.2677C27.8325 14.9317 27.9999 14.5158 27.9999 14.02C27.9999 13.5242 27.8325 13.1088 27.4977 12.774C27.1617 12.438 26.7457 12.27 26.2499 12.27L6.69365 12.27L15.2687 3.695C15.5895 3.37416 15.7575 2.96583 15.7727 2.47C15.7867 1.97416 15.6187 1.56583 15.2687 1.245C14.9478 0.894999 14.5395 0.719997 14.0437 0.719997C13.5478 0.719997 13.1249 0.894999 12.7749 1.245Z" fill="#D4B2D5"/>
</svg>
