<svg width="28" height="28" viewBox="0 0 28 28" fill="none" xmlns="http://www.w3.org/2000/svg">
<path d="M15.9687 26.7745L27.5187 15.2245C27.6937 15.0495 27.818 14.86 27.8915 14.6558C27.9638 14.4516 28 14.2329 28 13.9995C28 13.7662 27.9638 13.5475 27.8915 13.3433C27.818 13.1391 27.6937 12.9495 27.5187 12.7745L15.9687 1.22453C15.6479 0.9037 15.2472 0.735701 14.7665 0.720534C14.2847 0.706534 13.8687 0.874534 13.5187 1.22453C13.1687 1.54537 12.9862 1.94612 12.971 2.42678C12.957 2.90862 13.125 3.32453 13.475 3.67453L22.05 12.2495H2.49375C1.99791 12.2495 1.582 12.417 1.246 12.7518C0.911165 13.0878 0.743748 13.5037 0.743748 13.9995C0.743748 14.4954 0.911165 14.9107 1.246 15.2455C1.582 15.5815 1.99791 15.7495 2.49375 15.7495H22.05L13.475 24.3245C13.1542 24.6454 12.9862 25.0537 12.971 25.5495C12.957 26.0454 13.125 26.4537 13.475 26.7745C13.7958 27.1245 14.2042 27.2995 14.7 27.2995C15.1958 27.2995 15.6187 27.1245 15.9687 26.7745Z" fill="#D4B2D5"/>
</svg>
