<svg width="48" height="48" viewBox="0 0 48 48" fill="none" xmlns="http://www.w3.org/2000/svg">
<path fill-rule="evenodd" clip-rule="evenodd" d="M39.9999 33.1429V10.2858C39.9999 9.07337 39.5182 7.9106 38.6609 7.0533C37.8036 6.19599 36.6409 5.71436 35.4284 5.71436H17.1427C15.9303 5.71436 14.7675 6.19599 13.9102 7.0533C13.0529 7.9106 12.5713 9.07337 12.5713 10.2858V33.1429C12.5713 34.3553 13.0529 35.5181 13.9102 36.3754C14.7675 37.2327 15.9303 37.7144 17.1427 37.7144H35.4284C36.6409 37.7144 37.8036 37.2327 38.6609 36.3754C39.5182 35.5181 39.9999 34.3553 39.9999 33.1429Z" stroke="white" stroke-width="2" stroke-linecap="round" stroke-linejoin="round"/>
<path d="M12.1256 11.2803L7.54499 12.9488C6.40606 13.3637 5.47852 14.2139 4.9663 15.3124C4.45409 16.411 4.39915 17.6681 4.81356 18.8071L12.6307 40.286C12.8361 40.8502 13.1506 41.3684 13.5563 41.811C13.962 42.2537 14.451 42.6121 14.9952 42.8657C15.5394 43.1193 16.1283 43.2633 16.7281 43.2893C17.328 43.3154 17.9271 43.223 18.4913 43.0174L31.2181 37.9934M19.4284 17.1431H30.857M19.4284 21.7146H33.1427M19.4284 26.286H26.2856" stroke="white" stroke-width="2" stroke-linecap="round" stroke-linejoin="round"/>
</svg>
