<svg width="48" height="48" viewBox="0 0 48 48" fill="none" xmlns="http://www.w3.org/2000/svg">
<path d="M17.6129 43.7368L14.4806 38.4613C14.1989 37.9868 13.7335 37.6497 13.1948 37.53L7.27869 36.2153L7.85501 30.1228C7.90677 29.5756 7.73102 29.0311 7.36905 28.6175L3.32877 24L7.36905 19.3825C7.73102 18.9689 7.90677 18.4244 7.85501 17.8772L7.27869 11.7847L13.1948 10.47C13.7335 10.3503 14.1989 10.0132 14.4806 9.5387L17.6129 4.26325L23.2154 6.65254C23.7166 6.8663 24.2834 6.8663 24.7846 6.65254L30.3871 4.26325L33.5194 9.5387C33.8011 10.0132 34.2665 10.3503 34.8052 10.47L40.7213 11.7847L40.145 17.8772C40.0932 18.4244 40.269 18.9689 40.6309 19.3825L44.6712 24L40.631 28.6175C40.269 29.0311 40.0932 29.5756 40.145 30.1228L40.7213 36.2153L34.8052 37.53C34.2665 37.6497 33.8011 37.9868 33.5194 38.4613L30.3871 43.7368L24.7846 41.3475C24.2834 41.1337 23.7166 41.1337 23.2154 41.3475L17.6129 43.7368ZM23.3142 31.1L33.2123 21.2019C33.9837 20.4305 33.9946 19.1833 33.2369 18.3985L31.8263 16.9375C31.0495 16.133 29.764 16.1218 28.9733 16.9125L21.8917 23.9941L19.0057 21.1752C18.2221 20.4098 16.9686 20.4172 16.1941 21.1917L14.8 22.5858C14.019 23.3668 14.019 24.6332 14.8 25.4142L20.4858 31.1C21.2668 31.8811 22.5332 31.881 23.3142 31.1Z" stroke="white" stroke-width="2"/>
</svg>
