<svg width="180" height="53" viewBox="0 0 180 53" fill="none" xmlns="http://www.w3.org/2000/svg">
<g clip-path="url(#clip0_25_398)">
<path d="M171.613 46.1193C175.144 46.1193 177.646 45.4787 179.509 44.0989V37.8405C177.596 39.171 175.291 40.0088 172.054 40.0088C166.61 40.0088 164.354 35.7708 164.354 29.0689C164.354 22.0221 167.101 18.4248 172.103 18.4248C175.046 18.4248 177.94 19.4596 179.46 20.4452V13.9404C177.842 13.0534 175.046 12.4128 171.22 12.4128C161.46 12.4128 156.408 19.4596 156.408 29.3153C156.458 40.1073 161.411 46.1193 171.613 46.1193ZM123.891 43.2612V37.0028C121.537 38.629 117.515 40.0581 113.836 40.0581C108.245 40.0581 106.136 37.397 105.793 31.9764H124.234V27.9355C124.234 16.6507 119.28 12.4128 111.678 12.4128C102.359 12.4128 97.9453 19.5582 97.9453 29.3646C97.9453 40.6494 103.488 46.1193 113.199 46.1193C118.054 46.1193 121.635 44.7888 123.891 43.2612ZM53.9017 13.0041V25.8166H43.7001V13.0041H36.0488V45.4787H43.7001V31.9271H53.9017V45.4787H61.5529V13.0041H53.9017ZM96.0325 39.3682H92.6483V13.0041H70.3812V15.7637C70.3812 23.6976 69.8908 33.9475 67.1932 39.3682H64.7409V52.8705H71.8036V45.4787H88.9208V52.8705H95.9834V39.3682H96.0325ZM148.267 45.4787H156.948L144.686 27.9848L155.477 13.0041H147.776L136.986 27.9848V13.0041H129.335V45.4787H136.986V29.5124L148.267 45.4787ZM111.482 18.4248C115.259 18.4248 116.436 21.5786 116.436 25.6687V26.3093H105.793C105.989 21.1351 107.853 18.4248 111.482 18.4248ZM84.9971 39.3682H74.2069C76.3159 34.4896 76.9044 25.6194 76.9044 20.0017V19.0161H84.9971V39.3682Z" fill="black"/>
<path d="M29.673 45.4787H21.8747V6.69646H18.3924C12.0163 6.69646 8.6812 9.89957 8.6812 14.6796C8.6812 20.1002 10.9864 22.6134 15.7439 25.8165L19.6676 28.4776L8.38692 45.4787H0L10.1526 30.3009C4.31608 26.1122 1.02997 22.0221 1.02997 15.1231C1.02997 6.49934 7.01362 0.635193 18.3433 0.635193H29.624V45.4787H29.673Z" fill="#FC3F1D"/>
</g>
<defs>
<clipPath id="clip0_25_398">
<rect width="180" height="52.2353" fill="white" transform="translate(0 0.635193)"/>
</clipPath>
</defs>
</svg>
