<svg width="168" height="130" viewBox="0 0 168 130" fill="none" xmlns="http://www.w3.org/2000/svg">
<path d="M19.6327 107.449C19.5 107.396 19.3408 107.396 19.1816 107.449C18.8102 107.581 18.651 107.608 18.6245 107.608C18.5449 107.608 18.3592 107.581 18.0673 107.289C17.802 107.05 17.4571 106.652 17.0592 106.094L15.9449 104.527C15.6265 104.049 15.149 103.331 14.5653 102.428L13.2122 100.356C11.2755 97.3018 8.4898 95.2034 4.88163 94.1143L16.3694 83.994C16.7408 83.6487 17.4041 83.4628 18.3327 83.4628H18.9429C19.102 83.4628 19.2082 83.3831 19.2612 83.3034C19.3939 83.144 19.3673 83.0112 19.3143 82.9315C19.2612 82.7987 19.1286 82.7456 18.9163 82.7456H14.3C14.2469 82.7456 14.1939 82.7722 14.1673 82.7987L14.0612 82.8784C14.0347 82.905 14.0082 82.905 14.0082 82.9315C13.8755 83.0909 13.902 83.2503 13.9286 83.3034C13.9816 83.4362 14.1143 83.4894 14.3 83.4894H15.7327L3.76735 94.0877V83.4894H5.70408C5.91633 83.4894 6.07551 83.33 6.07551 83.1175C6.07551 82.905 5.91633 82.7456 5.70408 82.7456H0.371429C0.291837 82.7456 0.212245 82.7722 0.132653 82.8519C0.0530612 82.9315 0 83.0378 0 83.144C0 83.2503 0.0530612 83.3565 0.132653 83.4362C0.185714 83.4894 0.238775 83.5159 0.318367 83.5159H2.33469V107.528H0.504082C0.212245 107.528 0.0795918 107.714 0.0795918 107.9C0.0795918 108.086 0.212245 108.272 0.504082 108.272H5.62449C5.91633 108.272 6.04898 108.086 6.04898 107.9C6.04898 107.714 5.91633 107.528 5.62449 107.528H3.79388V95.1237L4.13878 94.8315C5.57143 95.2299 6.89796 95.9206 8.06531 96.8768C9.28571 97.8596 10.5592 99.3471 11.8327 101.313C13.4245 104.049 14.7245 105.935 15.6531 106.917C16.6082 107.927 17.6163 108.431 18.6245 108.431C18.9429 108.431 19.2612 108.352 19.6061 108.219C19.7918 108.086 19.8449 107.953 19.8449 107.794C19.8184 107.661 19.7388 107.581 19.6592 107.528L19.6327 107.449Z" fill="#595858"/>
<path d="M54.4675 95.2299C54.4675 99.6658 53.5654 102.933 51.8144 105.005C50.0634 107.05 47.7022 108.086 44.7573 108.113H44.6777C41.7593 108.086 39.3716 107.05 37.6206 105.005C35.8695 102.96 34.9675 99.6658 34.9675 95.2299C34.9675 91.0862 35.843 88.005 37.594 86.0128C39.3185 84.0472 41.6797 83.0112 44.545 82.9581H44.9165C47.7552 83.0378 50.0634 84.0737 51.7879 86.0393C53.5389 88.0315 54.4144 91.1128 54.4144 95.2299H54.4675ZM52.9287 85.7206C50.7797 83.4894 48.0736 82.3206 44.9165 82.2144H44.5185C41.3348 82.3206 38.6552 83.4894 36.5063 85.7206C34.3573 87.9518 33.2695 91.1393 33.2695 95.2299C33.2695 99.5862 34.3573 102.986 36.4797 105.297C38.6022 107.608 41.3614 108.803 44.6777 108.803H44.7573C48.0736 108.803 50.8328 107.635 52.9552 105.297C55.0777 102.986 56.1654 99.5862 56.1654 95.2299C56.1654 91.1393 55.0777 87.9518 52.9022 85.7206H52.9287Z" fill="#595858"/>
<path d="M89.9653 101.95C89.647 101.791 89.3021 101.817 89.0102 102.056C88.8245 102.216 88.5858 102.508 88.6919 103.013C88.8511 104.261 88.2674 105.403 86.9143 106.492C85.5347 107.581 83.6776 108.139 81.396 108.139C78.4511 108.112 76.0633 107.077 74.3388 105.058C72.5878 103.039 71.7123 99.7188 71.7123 95.2563C71.7123 91.086 72.6409 87.9782 74.498 85.9595C76.3286 83.9938 78.7429 82.9845 81.6878 82.9845H81.7939H81.8735C84.049 83.011 85.747 83.4892 86.9409 84.4188C88.1082 85.3485 88.5858 86.3845 88.4266 87.5798C88.347 88.0844 88.5592 88.3766 88.7449 88.536C89.0368 88.7751 89.3551 88.8016 89.7 88.6423C89.9123 88.536 90.1776 88.2704 90.1776 87.686C90.2041 86.1985 89.3551 84.897 87.6572 83.8345C86.0123 82.772 84.0225 82.2407 81.7939 82.2407C78.5041 82.2407 75.6919 83.3829 73.4102 85.6141C71.1286 87.872 69.9878 91.086 69.9878 95.2297C69.9878 99.6391 71.049 103.039 73.1715 105.323C75.2939 107.634 78.0531 108.803 81.449 108.803C83.7306 108.803 85.8266 108.192 87.6837 106.997C89.5674 105.775 90.496 104.394 90.4694 102.88C90.4694 102.295 90.2041 102.056 89.9919 101.923L89.9653 101.95Z" fill="#595858"/>
<path d="M130.504 107.475H128.726C128.647 107.475 128.62 107.449 128.62 107.449C128.62 107.449 128.594 107.422 128.594 107.369V83.5424C128.594 83.4627 128.594 83.4361 128.726 83.4361H130.504C130.716 83.4361 130.875 83.2768 130.875 83.0643C130.875 82.8518 130.716 82.6924 130.504 82.6924H127.161C127.055 82.6924 126.975 82.7455 126.922 82.8518L116.788 106.2L106.679 82.8518C106.626 82.7455 106.547 82.6924 106.441 82.6924H103.071C103.018 82.6924 102.965 82.7189 102.939 82.7455L102.833 82.8252C102.806 82.8518 102.779 82.8518 102.779 82.8783C102.647 83.0377 102.673 83.1971 102.7 83.2502C102.753 83.383 102.886 83.4361 103.098 83.4361H105.008V107.369C105.008 107.422 105.008 107.449 105.008 107.449C105.008 107.449 104.982 107.475 104.902 107.475H103.204C103.151 107.475 103.098 107.502 103.071 107.528L102.965 107.608C102.939 107.634 102.912 107.634 102.912 107.661C102.779 107.82 102.806 107.953 102.833 108.033C102.886 108.166 103.018 108.219 103.23 108.219H107.688C107.9 108.219 108.059 108.059 108.059 107.847C108.059 107.634 107.9 107.475 107.688 107.475H105.937C105.804 107.475 105.804 107.475 105.804 107.369V84.4455L116.098 108.192C116.151 108.299 116.23 108.352 116.337 108.352H116.575C116.682 108.352 116.761 108.299 116.814 108.192L127.082 84.4721V107.369C127.082 107.449 127.082 107.475 126.949 107.475H125.251C125.198 107.475 125.145 107.502 125.118 107.528L125.012 107.608C124.986 107.634 124.959 107.634 124.959 107.661C124.826 107.82 124.853 107.953 124.906 108.033C124.959 108.166 125.092 108.219 125.277 108.219H130.584C130.796 108.219 130.955 108.059 130.955 107.847C130.955 107.634 130.796 107.475 130.584 107.475H130.504Z" fill="#595858"/>
<path d="M165.445 95.2299C165.445 99.6658 164.543 102.933 162.792 105.005C161.041 107.05 158.68 108.086 155.761 108.113H155.682C152.763 108.086 150.376 107.05 148.625 105.005C146.874 102.96 145.972 99.6658 145.972 95.2299C145.972 91.0862 146.847 88.005 148.598 86.0128C150.349 84.0472 152.684 83.0112 155.549 82.9581H155.921C158.759 83.0378 161.067 84.0737 162.792 86.0393C164.543 88.0315 165.418 91.1128 165.418 95.2299H165.445ZM163.906 85.7206C161.757 83.4894 159.051 82.3206 155.894 82.2144H155.496C152.312 82.3206 149.633 83.4894 147.484 85.7206C145.335 87.9518 144.247 91.1393 144.247 95.2299C144.247 99.5862 145.335 102.986 147.457 105.297C149.58 107.608 152.339 108.803 155.655 108.803H155.735C159.051 108.803 161.81 107.635 163.933 105.297C166.055 102.986 167.143 99.5862 167.143 95.2299C167.143 91.1393 166.055 87.9518 163.906 85.7206Z" fill="#595858"/>
<path d="M28.9979 122.509V125.856H30.1652C30.3244 125.856 30.4571 125.83 30.6163 125.803C30.7489 125.776 30.8816 125.697 30.9877 125.617C31.0938 125.537 31.2265 125.405 31.3326 125.245C31.4387 125.086 31.5448 124.873 31.6244 124.634C31.7306 124.395 31.8101 124.103 31.8897 123.758C31.9693 123.412 32.0489 123.014 32.155 122.536H32.7652C32.6857 122.987 32.5795 123.412 32.4999 123.758C32.4203 124.103 32.3142 124.395 32.2346 124.661C32.155 124.9 32.0489 125.112 31.9693 125.298C31.8632 125.458 31.7836 125.617 31.6775 125.723C31.5714 125.83 31.4652 125.936 31.3591 125.989C31.253 126.042 31.1469 126.095 31.0142 126.148C31.2795 126.201 31.4918 126.308 31.704 126.441C31.8897 126.6 32.0755 126.812 32.2346 127.078C32.3938 127.37 32.553 127.716 32.6857 128.167C32.8183 128.619 32.9775 129.15 33.1101 129.814H32.4734C32.3408 129.309 32.2346 128.884 32.1285 128.512C32.0224 128.141 31.9163 127.822 31.7836 127.583C31.6775 127.317 31.5448 127.131 31.4387 126.972C31.3326 126.812 31.1999 126.706 31.0673 126.6C30.9346 126.52 30.802 126.467 30.6428 126.441C30.4836 126.414 30.3244 126.387 30.1387 126.387H28.9714V129.814H28.3877V122.562H28.9714L28.9979 122.509Z" fill="#595858"/>
<path d="M42.4223 126.148C42.4223 125.033 42.2366 124.183 41.8917 123.625C41.5203 123.067 40.9631 122.802 40.1407 122.802C39.7427 122.802 39.3713 122.881 39.0795 123.014C38.7876 123.173 38.5489 123.386 38.3631 123.652C38.1774 123.944 38.0448 124.289 37.9652 124.687C37.8856 125.112 37.8325 125.591 37.8325 126.122C37.8325 127.237 38.0182 128.061 38.3897 128.619C38.7611 129.177 39.3448 129.442 40.1407 129.442C40.9101 129.442 41.4938 129.177 41.8652 128.645C42.2366 128.114 42.4223 127.264 42.4223 126.148ZM43.0325 126.148C43.0325 126.733 42.9795 127.237 42.8734 127.716C42.7672 128.194 42.608 128.592 42.3693 128.911C42.1305 129.256 41.8387 129.495 41.4672 129.681C41.0958 129.867 40.6448 129.947 40.1142 129.947C39.5836 129.947 39.1325 129.867 38.7611 129.681C38.3897 129.495 38.0978 129.23 37.8591 128.911C37.6203 128.566 37.4611 128.167 37.355 127.716C37.2489 127.237 37.1958 126.733 37.1958 126.148C37.1958 125.591 37.2489 125.086 37.355 124.608C37.4611 124.13 37.6203 123.731 37.8591 123.386C38.0978 123.041 38.3897 122.775 38.7611 122.589C39.1325 122.403 39.5836 122.297 40.1142 122.297C40.6182 122.297 41.0693 122.377 41.4407 122.562C41.8121 122.748 42.104 122.987 42.3427 123.333C42.5815 123.678 42.7407 124.077 42.8734 124.555C42.9795 125.033 43.0325 125.564 43.0325 126.175V126.148Z" fill="#595858"/>
<path d="M52.743 128.566C52.5042 129.044 52.2124 129.416 51.8144 129.655C51.443 129.894 50.9654 130 50.3817 130C49.8246 130 49.3736 129.894 49.0287 129.708C48.6573 129.522 48.3654 129.23 48.1532 128.911C47.9409 128.566 47.7817 128.167 47.6756 127.689C47.5695 127.238 47.543 126.733 47.543 126.202C47.543 125.617 47.596 125.086 47.7022 124.608C47.8083 124.13 47.9675 123.731 48.2062 123.386C48.445 123.041 48.7368 122.802 49.0817 122.616C49.4532 122.43 49.8777 122.35 50.4083 122.35C50.9389 122.35 51.3899 122.456 51.7348 122.695C52.1062 122.934 52.3981 123.306 52.6634 123.784L52.1593 124.05C52.0532 123.838 51.9471 123.652 51.8409 123.519C51.7348 123.359 51.6022 123.253 51.443 123.147C51.3103 123.041 51.1511 122.961 50.9654 122.934C50.7797 122.881 50.594 122.855 50.3552 122.855C49.6124 122.855 49.0552 123.12 48.6838 123.678C48.3124 124.236 48.1532 125.086 48.1532 126.255C48.1532 126.759 48.2062 127.211 48.2858 127.609C48.3654 128.008 48.4981 128.353 48.6838 128.645C48.8695 128.938 49.1083 129.15 49.3736 129.283C49.6654 129.442 50.0103 129.495 50.4083 129.495C50.6736 129.495 50.9124 129.469 51.0981 129.389C51.2838 129.336 51.4695 129.23 51.6022 129.124C51.7348 129.017 51.8675 128.884 51.9736 128.725C52.0797 128.566 52.1858 128.406 52.2654 128.247L52.743 128.539V128.566Z" fill="#595858"/>
<path d="M63.2492 129.761H62.6655V123.758L60.49 127.769H60.1451L57.9696 123.758V129.761H57.3594V122.509H57.89L60.3043 126.972L62.7186 122.509H63.2492V129.761Z" fill="#595858"/>
<path d="M72.7737 125.484C72.7737 124.979 72.7207 124.554 72.6411 124.236C72.5615 123.89 72.4288 123.625 72.2696 123.412C72.1105 123.2 71.9247 123.04 71.686 122.961C71.4472 122.854 71.1819 122.828 70.8635 122.828C70.4921 122.828 70.2002 122.881 69.9349 122.987C69.6696 123.094 69.4574 123.253 69.2982 123.465C69.139 123.678 69.0064 123.97 68.9002 124.289C68.8207 124.634 68.7676 125.033 68.7411 125.484H72.7737ZM68.7411 125.989C68.7411 126.653 68.7676 127.184 68.8472 127.636C68.9268 128.087 69.0329 128.433 69.1921 128.698C69.3513 128.964 69.5635 129.15 69.8288 129.283C70.0941 129.389 70.4125 129.469 70.7839 129.469C70.9962 129.469 71.2084 129.442 71.3941 129.415C71.5798 129.389 71.739 129.309 71.8982 129.229C72.0574 129.15 72.2166 129.017 72.3492 128.884C72.4819 128.751 72.6145 128.565 72.7472 128.353L73.1982 128.672C73.0656 128.884 72.9329 129.07 72.8002 129.229C72.6676 129.389 72.4819 129.522 72.2962 129.654C72.1105 129.761 71.8982 129.867 71.6329 129.92C71.3941 129.973 71.1023 130 70.7839 130C70.3329 130 69.9349 129.92 69.6166 129.787C69.2717 129.654 69.0064 129.442 68.7941 129.123C68.5819 128.831 68.4227 128.433 68.29 127.954C68.1839 127.476 68.1309 126.892 68.1309 126.201C68.1309 125.537 68.1839 124.979 68.29 124.501C68.3962 124.023 68.5553 123.598 68.7676 123.279C68.9798 122.961 69.2717 122.722 69.6166 122.562C69.9615 122.403 70.386 122.323 70.8635 122.323C71.7125 122.323 72.3492 122.589 72.7472 123.147C73.1451 123.678 73.3574 124.475 73.3574 125.537V126.015H68.7411V125.989Z" fill="#595858"/>
<path d="M81.741 123.014H79.592V129.761H79.0084V123.014H76.8594V122.509H81.741V123.014Z" fill="#595858"/>
<path d="M90.4692 126.148C90.4692 125.033 90.2835 124.183 89.9386 123.625C89.5672 123.067 89.01 122.802 88.1876 122.802C87.7896 122.802 87.4182 122.881 87.1263 123.014C86.8345 123.173 86.5957 123.386 86.41 123.652C86.2243 123.944 86.0917 124.289 86.0121 124.687C85.9325 125.112 85.8794 125.591 85.8794 126.122C85.8794 127.237 86.0651 128.061 86.4366 128.619C86.808 129.177 87.3917 129.442 88.1876 129.442C88.957 129.442 89.5406 129.177 89.9121 128.645C90.2835 128.114 90.4692 127.264 90.4692 126.148ZM91.0794 126.148C91.0794 126.733 91.0263 127.237 90.9202 127.716C90.8141 128.194 90.6549 128.592 90.4161 128.911C90.1774 129.256 89.8855 129.495 89.5141 129.681C89.1427 129.867 88.6917 129.947 88.161 129.947C87.6304 129.947 87.1794 129.867 86.808 129.681C86.4366 129.495 86.1447 129.23 85.9059 128.911C85.6672 128.566 85.508 128.167 85.4019 127.716C85.2957 127.237 85.2427 126.733 85.2427 126.148C85.2427 125.591 85.2957 125.086 85.4019 124.608C85.508 124.13 85.6672 123.731 85.9059 123.386C86.1447 123.041 86.4366 122.775 86.808 122.589C87.1794 122.403 87.6304 122.297 88.161 122.297C88.6651 122.297 89.1161 122.377 89.4876 122.562C89.859 122.748 90.1508 122.987 90.3896 123.333C90.6284 123.678 90.7876 124.077 90.9202 124.555C91.0263 125.033 91.0794 125.564 91.0794 126.175V126.148Z" fill="#595858"/>
<path d="M97.4735 123.014V123.227C97.4735 124.502 97.4205 125.564 97.3144 126.414C97.2082 127.264 97.049 127.955 96.8633 128.459C96.6776 128.964 96.4388 129.336 96.1735 129.549C95.9082 129.761 95.6164 129.867 95.298 129.867C95.2184 129.867 95.1123 129.867 95.0062 129.841C94.9001 129.814 94.7939 129.814 94.7144 129.788L94.8735 129.256C94.9266 129.283 95.0062 129.309 95.0858 129.309C95.1654 129.309 95.2715 129.336 95.3776 129.336C95.5633 129.336 95.749 129.23 95.9348 129.017C96.1205 128.805 96.2797 128.459 96.4123 127.981C96.545 127.503 96.6776 126.866 96.7572 126.095C96.8368 125.325 96.8899 124.369 96.8899 123.2V122.483H100.127V129.734H99.5429V122.988H97.5001L97.4735 123.014Z" fill="#595858"/>
<path d="M110.182 126.148C110.182 125.033 109.996 124.183 109.651 123.625C109.28 123.067 108.722 122.802 107.9 122.802C107.475 122.802 107.131 122.881 106.839 123.014C106.547 123.173 106.308 123.386 106.122 123.652C105.937 123.944 105.804 124.289 105.724 124.687C105.645 125.112 105.592 125.591 105.592 126.122C105.592 127.237 105.778 128.061 106.149 128.619C106.52 129.177 107.104 129.442 107.9 129.442C108.669 129.442 109.253 129.177 109.624 128.645C109.996 128.114 110.182 127.264 110.182 126.148ZM110.792 126.148C110.792 126.733 110.739 127.237 110.633 127.716C110.527 128.194 110.367 128.592 110.129 128.911C109.89 129.256 109.598 129.495 109.227 129.681C108.855 129.867 108.404 129.947 107.873 129.947C107.343 129.947 106.892 129.867 106.52 129.681C106.149 129.495 105.857 129.23 105.618 128.911C105.38 128.566 105.22 128.167 105.114 127.716C105.008 127.237 104.955 126.733 104.955 126.148C104.955 125.591 105.008 125.086 105.114 124.608C105.22 124.13 105.38 123.731 105.618 123.386C105.857 123.041 106.149 122.775 106.52 122.589C106.892 122.403 107.343 122.297 107.873 122.297C108.378 122.297 108.829 122.377 109.2 122.562C109.571 122.748 109.863 122.987 110.102 123.333C110.341 123.678 110.5 124.077 110.633 124.555C110.739 125.033 110.792 125.564 110.792 126.175V126.148Z" fill="#595858"/>
<path d="M115.673 122.509H120.157V123.014H116.284V129.761H115.673V122.509Z" fill="#595858"/>
<path d="M124.826 129.761H124.163V122.509H124.747V128.884L128.594 122.509H129.257V129.761H128.647V123.412L124.826 129.761Z" fill="#595858"/>
<path d="M134.802 124.528C134.802 124.82 134.829 125.059 134.882 125.245C134.935 125.431 135.041 125.617 135.174 125.723C135.306 125.856 135.492 125.936 135.731 126.016C135.969 126.069 136.261 126.095 136.633 126.095H138.225V123.014H136.686C136.314 123.014 136.023 123.041 135.757 123.094C135.518 123.147 135.333 123.226 135.174 123.359C135.041 123.492 134.935 123.625 134.882 123.837C134.829 124.023 134.802 124.262 134.802 124.528ZM136.633 126.6H136.367C136.288 126.6 136.208 126.6 136.102 126.573L134.351 129.761H133.714L135.545 126.494C135.067 126.387 134.723 126.175 134.51 125.856C134.298 125.537 134.192 125.086 134.192 124.501C134.192 124.13 134.245 123.837 134.351 123.572C134.457 123.306 134.59 123.12 134.802 122.961C135.014 122.801 135.253 122.695 135.571 122.616C135.89 122.536 136.235 122.509 136.659 122.509H138.835V129.761H138.251V126.6H136.659H136.633Z" fill="#595858"/>
<path d="M115.753 0.773929C117 0.0833069 115.859 -0.0229427 115.514 0.00361968C109.2 0.587992 38.3368 24.441 49.1082 50.0737C58.2348 71.7487 88.5327 67.1002 93.9184 66.4627C94.2633 66.4096 94.396 66.0909 94.1307 65.9049C90.6286 63.4081 71.8715 53.1019 73.1715 40.166C74.8429 23.5379 110.341 3.77548 115.753 0.773929Z" fill="#363636"/>
<path d="M79.0881 40.2459C80.3085 27.2303 107.529 7.20228 115.196 3.00542C116.39 2.34136 117.345 2.84604 117.664 4.70541C123.553 37.4037 100.604 65.6395 95.5636 64.2317C91.584 63.1161 78.1064 50.5521 79.0881 40.2459Z" fill="#B6B2AF"/>
</svg>
