<svg width="180" height="59" viewBox="0 0 180 59" fill="none" xmlns="http://www.w3.org/2000/svg">
<g clip-path="url(#clip0_25_405)">
<path d="M171.721 22.084H179.98C178.935 14.0514 173.065 9.82928 164.905 9.82928C156.647 9.82928 151.124 14.206 151.124 21.7235C151.124 30.2709 158.239 32.1758 162.02 32.9485C166.895 33.9267 171.672 34.0297 171.672 38.3547C171.672 41.2897 169.283 42.7314 165.9 42.7314C161.721 42.7314 158.935 40.5688 158.239 36.6558H150.08C150.577 45.1001 156.498 49.6311 165.204 49.6311C173.264 49.6311 179.88 45.821 179.88 37.5825C179.88 28.7261 172.269 27.13 166.945 26.3061C163.313 25.7398 159.333 25.2248 159.333 21.26C159.333 18.4796 161.373 16.7805 164.806 16.7805C168.786 16.7805 171.174 19.0977 171.721 22.084Z" fill="#403F41"/>
<path d="M145.552 11.1174H137.741V48.4475H145.552V11.1174Z" fill="#403F41"/>
<path d="M114.159 35.4204H124.358C122.766 39.4369 119.184 41.3416 115.054 41.3416C107.791 41.3416 104.408 35.5234 104.408 29.7565C104.408 23.938 107.592 18.0168 115.005 18.0168C119.532 18.0168 122.915 20.1794 124.209 24.0411L132.617 24.0411C131.174 15.3395 123.811 10.3449 115.104 10.3449C104.358 10.3449 96.2983 17.9137 96.2983 29.8595C96.2983 41.9596 105.054 49.1168 115.054 49.1168C124.905 49.1168 132.617 42.4746 132.617 32.0736V29.0356H114.159V35.4204Z" fill="#403F41"/>
<path d="M78.4377 10.3449C69.4825 10.3449 62.8655 16.1631 62.9153 25.8433H70.9751C70.8755 21.6211 73.4625 17.7594 78.0396 17.7594C82.0198 17.7594 84.3581 20.6429 84.3581 23.9381C84.3581 27.2335 82.0198 29.0872 77.6914 31.0954C71.7709 33.8243 67.5422 35.5749 63.2138 37.1197V48.4474H93.3631V40.8268H72.6653C72.6653 40.8268 72.7342 40.8045 72.7681 40.794C76.2885 39.69 78.9333 38.4905 82.0696 37.0681C88.7859 33.9788 92.6168 30.1169 92.6168 23.5263C92.6168 15.4422 86.8457 10.3449 78.4377 10.3449Z" fill="#403F41"/>
<path d="M41.7212 35.3172C31.5719 35.3688 29.9302 41.7019 29.383 47.0569L29.1343 49.4254H27.0943L26.8456 47.0569C26.2984 41.7019 24.6069 35.3687 14.8058 35.3172C13.1641 31.8157 12.4675 28.9838 12.4675 25.7914C12.4675 17.8106 18.786 10.3444 28.139 10.3444C37.4923 10.3444 43.7112 17.7589 43.7112 25.8432C43.7112 28.9838 43.4128 31.8157 41.7212 35.3172ZM28.0397 0.664246C12.6169 0.664246 -0.0200195 13.7428 -0.0200195 29.756C-0.0200195 45.8211 12.6169 58.8994 28.0397 58.8994C43.6117 58.8994 56.1988 45.8211 56.1988 29.756C56.1988 13.7429 43.6117 0.664246 28.0397 0.664246Z" fill="#29B24A"/>
</g>
<defs>
<clipPath id="clip0_25_405">
<rect width="180" height="58.2353" fill="white" transform="translate(0 0.635193)"/>
</clipPath>
</defs>
</svg>
