<svg width="154" height="120" viewBox="0 0 154 120" fill="none" xmlns="http://www.w3.org/2000/svg">
<path d="M18.0889 98.8805C17.9667 98.8317 17.82 98.8317 17.6733 98.8805C17.3311 99.0028 17.1844 99.0272 17.16 99.0272C17.0867 99.0272 16.9156 99.0028 16.6467 98.7339C16.4022 98.5139 16.0844 98.1472 15.7178 97.6339L14.6911 96.1917C14.3978 95.7517 13.9578 95.0917 13.42 94.2605L12.1733 92.3539C10.3889 89.5428 7.82222 87.6117 4.49778 86.6094L15.0822 77.2961C15.4244 76.9783 16.0356 76.8072 16.8911 76.8072H17.4533C17.6 76.8072 17.6978 76.7339 17.7467 76.6605C17.8689 76.5139 17.8444 76.3917 17.7955 76.3183C17.7467 76.1961 17.6244 76.1472 17.4289 76.1472H13.1756C13.1267 76.1472 13.0778 76.1717 13.0533 76.1961L12.9556 76.2694C12.9311 76.2939 12.9067 76.2939 12.9067 76.3183C12.7844 76.465 12.8089 76.6117 12.8333 76.6605C12.8822 76.7828 13.0044 76.8317 13.1756 76.8317H14.4956L3.47111 86.585V76.8317H5.25555C5.45111 76.8317 5.59778 76.685 5.59778 76.4894C5.59778 76.2939 5.45111 76.1472 5.25555 76.1472H0.342222C0.268889 76.1472 0.195555 76.1717 0.122222 76.245C0.0488889 76.3183 0 76.4161 0 76.5139C0 76.6117 0.0488889 76.7094 0.122222 76.7828C0.171111 76.8317 0.22 76.8561 0.293333 76.8561H2.15111V98.9539H0.464444C0.195555 98.9539 0.0733333 99.125 0.0733333 99.2961C0.0733333 99.4672 0.195555 99.6383 0.464444 99.6383H5.18222C5.45111 99.6383 5.57333 99.4672 5.57333 99.2961C5.57333 99.125 5.45111 98.9539 5.18222 98.9539H3.49555V87.5383L3.81333 87.2694C5.13333 87.6361 6.35555 88.2717 7.43111 89.1517C8.55555 90.0561 9.72889 91.425 10.9022 93.2339C12.3689 95.7517 13.5667 97.4872 14.4222 98.3917C15.3022 99.3205 16.2311 99.785 17.16 99.785C17.4533 99.785 17.7467 99.7117 18.0644 99.5894C18.2355 99.4672 18.2844 99.345 18.2844 99.1983C18.26 99.0761 18.1867 99.0028 18.1133 98.9539L18.0889 98.8805Z" fill="#595858"/>
<path d="M50.1844 87.6371C50.1844 91.7193 49.3533 94.726 47.74 96.6326C46.1266 98.5148 43.9511 99.4682 41.2378 99.4926H41.1644C38.4755 99.4682 36.2755 98.5148 34.6622 96.6326C33.0489 94.7504 32.2178 91.7193 32.2178 87.6371C32.2178 83.8237 33.0244 80.9882 34.6378 79.1549C36.2267 77.346 38.4022 76.3926 41.0422 76.3437H41.3844C44 76.4171 46.1266 77.3704 47.7155 79.1793C49.3289 81.0126 50.1355 83.8482 50.1355 87.6371H50.1844ZM48.7666 78.886C46.7866 76.8326 44.2933 75.7571 41.3844 75.6593H41.0178C38.0844 75.7571 35.6155 76.8326 33.6355 78.886C31.6555 80.9393 30.6533 83.8726 30.6533 87.6371C30.6533 91.646 31.6555 94.7748 33.6111 96.9015C35.5667 99.0282 38.1089 100.128 41.1644 100.128H41.2378C44.2933 100.128 46.8355 99.0526 48.7911 96.9015C50.7466 94.7748 51.7489 91.646 51.7489 87.6371C51.7489 83.8726 50.7466 80.9393 48.7422 78.886H48.7666Z" fill="#595858"/>
<path d="M82.891 93.8219C82.5977 93.6752 82.2799 93.6996 82.011 93.9196C81.8399 94.0663 81.6199 94.3352 81.7177 94.7996C81.8644 95.9485 81.3266 96.9996 80.0799 98.0019C78.8088 99.0041 77.0977 99.5174 74.9955 99.5174C72.2822 99.493 70.0822 98.5396 68.4933 96.6819C66.8799 94.8241 66.0733 91.7685 66.0733 87.6619C66.0733 83.8241 66.9288 80.9641 68.6399 79.1063C70.3266 77.2974 72.551 76.3685 75.2644 76.3685H75.3621H75.4355C77.4399 76.393 79.0044 76.833 80.1044 77.6885C81.1799 78.5441 81.6199 79.4974 81.4733 80.5974C81.3999 81.0619 81.5955 81.3307 81.7666 81.4774C82.0355 81.6974 82.3288 81.7219 82.6466 81.5752C82.8421 81.4774 83.0866 81.233 83.0866 80.6952C83.111 79.3263 82.3288 78.1285 80.7644 77.1507C79.2488 76.173 77.4155 75.6841 75.3621 75.6841C72.331 75.6841 69.7399 76.7352 67.6377 78.7885C65.5355 80.8663 64.4844 83.8241 64.4844 87.6374C64.4844 91.6952 65.4622 94.8241 67.4177 96.9263C69.3733 99.053 71.9155 100.129 75.0444 100.129C77.1466 100.129 79.0777 99.5663 80.7888 98.4663C82.5244 97.3419 83.3799 96.0707 83.3555 94.6774C83.3555 94.1396 83.111 93.9196 82.9155 93.7974L82.891 93.8219Z" fill="#595858"/>
<path d="M120.242 98.9052H118.604C118.531 98.9052 118.507 98.8807 118.507 98.8807C118.507 98.8807 118.482 98.8563 118.482 98.8074V76.8807C118.482 76.8074 118.482 76.783 118.604 76.783H120.242C120.438 76.783 120.584 76.6363 120.584 76.4407C120.584 76.2452 120.438 76.0985 120.242 76.0985H117.162C117.064 76.0985 116.991 76.1474 116.942 76.2452L107.604 97.7318L98.2911 76.2452C98.2422 76.1474 98.1689 76.0985 98.0711 76.0985H94.9667C94.9178 76.0985 94.8689 76.123 94.8445 76.1474L94.7467 76.2207C94.7222 76.2452 94.6978 76.2452 94.6978 76.2696C94.5756 76.4163 94.6 76.563 94.6245 76.6118C94.6733 76.7341 94.7956 76.783 94.9911 76.783H96.7511V98.8074C96.7511 98.8563 96.7511 98.8807 96.7511 98.8807C96.7511 98.8807 96.7267 98.9052 96.6533 98.9052H95.0889C95.04 98.9052 94.9911 98.9296 94.9667 98.9541L94.8689 99.0274C94.8445 99.0518 94.82 99.0518 94.82 99.0763C94.6978 99.2229 94.7222 99.3452 94.7467 99.4185C94.7956 99.5407 94.9178 99.5896 95.1133 99.5896H99.22C99.4156 99.5896 99.5622 99.4429 99.5622 99.2474C99.5622 99.0518 99.4156 98.9052 99.22 98.9052H97.6067C97.4845 98.9052 97.4845 98.9052 97.4845 98.8074V77.7118L106.969 99.5652C107.018 99.6629 107.091 99.7118 107.189 99.7118H107.409C107.507 99.7118 107.58 99.6629 107.629 99.5652L117.089 77.7363V98.8074C117.089 98.8807 117.089 98.9052 116.967 98.9052H115.402C115.353 98.9052 115.304 98.9296 115.28 98.9541L115.182 99.0274C115.158 99.0518 115.133 99.0518 115.133 99.0763C115.011 99.2229 115.036 99.3452 115.084 99.4185C115.133 99.5407 115.256 99.5896 115.427 99.5896H120.316C120.511 99.5896 120.658 99.4429 120.658 99.2474C120.658 99.0518 120.511 98.9052 120.316 98.9052H120.242Z" fill="#595858"/>
<path d="M152.435 87.6371C152.435 91.7193 151.604 94.726 149.991 96.6326C148.378 98.5148 146.202 99.4682 143.513 99.4926H143.44C140.751 99.4682 138.551 98.5148 136.938 96.6326C135.324 94.7504 134.493 91.7193 134.493 87.6371C134.493 83.8237 135.3 80.9882 136.913 79.1549C138.527 77.346 140.678 76.3926 143.318 76.3437H143.66C146.275 76.4171 148.402 77.3704 149.991 79.1793C151.604 81.0126 152.411 83.8482 152.411 87.6371H152.435ZM151.018 78.886C149.038 76.8326 146.544 75.7571 143.635 75.6593H143.269C140.335 75.7571 137.867 76.8326 135.887 78.886C133.907 80.9393 132.904 83.8726 132.904 87.6371C132.904 91.646 133.907 94.7748 135.862 96.9015C137.818 99.0282 140.36 100.128 143.415 100.128H143.489C146.544 100.128 149.087 99.0526 151.042 96.9015C152.998 94.7748 154 91.646 154 87.6371C154 83.8726 152.998 80.9393 151.018 78.886Z" fill="#595858"/>
<path d="M26.7175 112.742V115.822H27.7931C27.9397 115.822 28.0619 115.797 28.2086 115.773C28.3308 115.748 28.4531 115.675 28.5508 115.602C28.6486 115.528 28.7708 115.406 28.8686 115.259C28.9664 115.113 29.0642 114.917 29.1375 114.697C29.2353 114.477 29.3086 114.208 29.3819 113.891C29.4553 113.573 29.5286 113.206 29.6264 112.766H30.1886C30.1153 113.182 30.0175 113.573 29.9442 113.891C29.8708 114.208 29.773 114.477 29.6997 114.722C29.6264 114.942 29.5286 115.137 29.4553 115.308C29.3575 115.455 29.2842 115.602 29.1864 115.699C29.0886 115.797 28.9908 115.895 28.8931 115.944C28.7953 115.993 28.6975 116.042 28.5753 116.091C28.8197 116.139 29.0153 116.237 29.2108 116.359C29.3819 116.506 29.553 116.702 29.6997 116.946C29.8464 117.215 29.993 117.533 30.1153 117.948C30.2375 118.364 30.3842 118.853 30.5064 119.464H29.9197C29.7975 118.999 29.6997 118.608 29.6019 118.266C29.5042 117.924 29.4064 117.631 29.2842 117.411C29.1864 117.166 29.0642 116.995 28.9664 116.848C28.8686 116.702 28.7464 116.604 28.6242 116.506C28.5019 116.433 28.3797 116.384 28.2331 116.359C28.0864 116.335 27.9397 116.311 27.7686 116.311H26.6931V119.464H26.1553V112.791H26.6931L26.7175 112.742Z" fill="#595858"/>
<path d="M39.0865 116.09C39.0865 115.064 38.9154 114.282 38.5977 113.768C38.2554 113.255 37.7421 113.01 36.9843 113.01C36.6177 113.01 36.2754 113.084 36.0066 113.206C35.7377 113.353 35.5177 113.548 35.3466 113.793C35.1754 114.062 35.0532 114.379 34.9799 114.746C34.9066 115.137 34.8577 115.577 34.8577 116.066C34.8577 117.093 35.0288 117.85 35.371 118.364C35.7132 118.877 36.251 119.122 36.9843 119.122C37.6932 119.122 38.231 118.877 38.5732 118.388C38.9154 117.899 39.0865 117.117 39.0865 116.09ZM39.6488 116.09C39.6488 116.628 39.5999 117.093 39.5021 117.533C39.4043 117.973 39.2577 118.339 39.0377 118.633C38.8177 118.95 38.5488 119.17 38.2066 119.342C37.8643 119.513 37.4488 119.586 36.9599 119.586C36.471 119.586 36.0554 119.513 35.7132 119.342C35.371 119.17 35.1021 118.926 34.8821 118.633C34.6621 118.315 34.5154 117.948 34.4177 117.533C34.3199 117.093 34.271 116.628 34.271 116.09C34.271 115.577 34.3199 115.113 34.4177 114.673C34.5154 114.233 34.6621 113.866 34.8821 113.548C35.1021 113.23 35.371 112.986 35.7132 112.815C36.0554 112.644 36.471 112.546 36.9599 112.546C37.4243 112.546 37.8399 112.619 38.1821 112.79C38.5243 112.962 38.7932 113.182 39.0132 113.499C39.2332 113.817 39.3799 114.184 39.5021 114.624C39.5999 115.064 39.6488 115.553 39.6488 116.115V116.09Z" fill="#595858"/>
<path d="M48.5958 118.314C48.3758 118.754 48.1069 119.096 47.7402 119.316C47.398 119.536 46.958 119.634 46.4202 119.634C45.9069 119.634 45.4914 119.536 45.1736 119.365C44.8314 119.194 44.5625 118.925 44.3669 118.632C44.1714 118.314 44.0247 117.947 43.9269 117.507C43.8291 117.092 43.8047 116.627 43.8047 116.138C43.8047 115.6 43.8536 115.112 43.9514 114.672C44.0491 114.232 44.1958 113.865 44.4158 113.547C44.6358 113.229 44.9047 113.009 45.2225 112.838C45.5647 112.667 45.9558 112.594 46.4447 112.594C46.9336 112.594 47.3491 112.692 47.6669 112.912C48.0091 113.132 48.278 113.474 48.5225 113.914L48.058 114.158C47.9602 113.963 47.8625 113.792 47.7647 113.669C47.6669 113.523 47.5447 113.425 47.398 113.327C47.2758 113.229 47.1291 113.156 46.958 113.132C46.7869 113.083 46.6158 113.058 46.3958 113.058C45.7114 113.058 45.198 113.303 44.8558 113.816C44.5136 114.329 44.3669 115.112 44.3669 116.187C44.3669 116.652 44.4158 117.067 44.4891 117.434C44.5625 117.8 44.6847 118.118 44.8558 118.387C45.0269 118.656 45.2469 118.852 45.4914 118.974C45.7602 119.12 46.078 119.169 46.4447 119.169C46.6891 119.169 46.9091 119.145 47.0802 119.072C47.2514 119.023 47.4225 118.925 47.5447 118.827C47.6669 118.729 47.7891 118.607 47.8869 118.46C47.9847 118.314 48.0825 118.167 48.1558 118.02L48.5958 118.289V118.314Z" fill="#595858"/>
<path d="M58.2753 119.415H57.7375V113.891L55.7331 117.582H55.4153L53.4109 113.891V119.415H52.8486V112.742H53.3375L55.562 116.848L57.7864 112.742H58.2753V119.415Z" fill="#595858"/>
<path d="M67.0512 115.48C67.0512 115.015 67.0023 114.624 66.929 114.331C66.8557 114.013 66.7334 113.769 66.5868 113.573C66.4401 113.377 66.269 113.231 66.049 113.157C65.829 113.06 65.5845 113.035 65.2912 113.035C64.949 113.035 64.6801 113.084 64.4357 113.182C64.1912 113.28 63.9957 113.426 63.849 113.622C63.7023 113.817 63.5801 114.086 63.4823 114.38C63.409 114.697 63.3601 115.064 63.3357 115.48H67.0512ZM63.3357 115.944C63.3357 116.555 63.3601 117.044 63.4334 117.46C63.5068 117.875 63.6045 118.193 63.7512 118.437C63.8979 118.682 64.0934 118.853 64.3379 118.975C64.5823 119.073 64.8757 119.146 65.2179 119.146C65.4134 119.146 65.609 119.122 65.7801 119.097C65.9512 119.073 66.0979 119 66.2445 118.926C66.3912 118.853 66.5379 118.731 66.6601 118.609C66.7823 118.486 66.9045 118.315 67.0268 118.12L67.4423 118.413C67.3201 118.609 67.1979 118.78 67.0757 118.926C66.9534 119.073 66.7823 119.195 66.6112 119.317C66.4401 119.415 66.2445 119.513 66.0001 119.562C65.7801 119.611 65.5112 119.635 65.2179 119.635C64.8023 119.635 64.4357 119.562 64.1423 119.44C63.8245 119.317 63.5801 119.122 63.3845 118.829C63.189 118.56 63.0423 118.193 62.9201 117.753C62.8223 117.313 62.7734 116.775 62.7734 116.14C62.7734 115.529 62.8223 115.015 62.9201 114.575C63.0179 114.135 63.1645 113.744 63.3601 113.451C63.5557 113.157 63.8245 112.937 64.1423 112.791C64.4601 112.644 64.8512 112.571 65.2912 112.571C66.0734 112.571 66.6601 112.815 67.0268 113.329C67.3934 113.817 67.589 114.551 67.589 115.529V115.969H63.3357V115.944Z" fill="#595858"/>
<path d="M75.3132 113.206H73.3332V119.415H72.7954V113.206H70.8154V112.742H75.3132V113.206Z" fill="#595858"/>
<path d="M83.3556 116.09C83.3556 115.064 83.1845 114.282 82.8667 113.768C82.5245 113.255 82.0111 113.01 81.2534 113.01C80.8867 113.01 80.5445 113.084 80.2756 113.206C80.0067 113.353 79.7867 113.548 79.6156 113.793C79.4445 114.062 79.3223 114.379 79.2489 114.746C79.1756 115.137 79.1267 115.577 79.1267 116.066C79.1267 117.093 79.2978 117.85 79.64 118.364C79.9823 118.877 80.52 119.122 81.2534 119.122C81.9623 119.122 82.5 118.877 82.8423 118.388C83.1845 117.899 83.3556 117.117 83.3556 116.09ZM83.9178 116.09C83.9178 116.628 83.8689 117.093 83.7711 117.533C83.6734 117.973 83.5267 118.339 83.3067 118.633C83.0867 118.95 82.8178 119.17 82.4756 119.342C82.1334 119.513 81.7178 119.586 81.2289 119.586C80.74 119.586 80.3245 119.513 79.9823 119.342C79.64 119.17 79.3711 118.926 79.1511 118.633C78.9312 118.315 78.7845 117.948 78.6867 117.533C78.5889 117.093 78.54 116.628 78.54 116.09C78.54 115.577 78.5889 115.113 78.6867 114.673C78.7845 114.233 78.9312 113.866 79.1511 113.548C79.3711 113.23 79.64 112.986 79.9823 112.815C80.3245 112.644 80.74 112.546 81.2289 112.546C81.6934 112.546 82.1089 112.619 82.4511 112.79C82.7934 112.962 83.0623 113.182 83.2823 113.499C83.5023 113.817 83.6489 114.184 83.7711 114.624C83.8689 115.064 83.9178 115.553 83.9178 116.115V116.09Z" fill="#595858"/>
<path d="M89.8088 113.206V113.401C89.8088 114.575 89.7599 115.552 89.6622 116.335C89.5644 117.117 89.4177 117.752 89.2466 118.217C89.0755 118.681 88.8555 119.024 88.611 119.219C88.3666 119.415 88.0977 119.512 87.8044 119.512C87.731 119.512 87.6333 119.512 87.5355 119.488C87.4377 119.464 87.3399 119.464 87.2666 119.439L87.4133 118.95C87.4622 118.975 87.5355 118.999 87.6088 118.999C87.6822 118.999 87.7799 119.024 87.8777 119.024C88.0488 119.024 88.2199 118.926 88.391 118.73C88.5622 118.535 88.7088 118.217 88.831 117.777C88.9533 117.337 89.0755 116.75 89.1488 116.041C89.2222 115.332 89.271 114.452 89.271 113.377V112.717H92.2533V119.39H91.7155V113.181H89.8333L89.8088 113.206Z" fill="#595858"/>
<path d="M101.518 116.09C101.518 115.064 101.347 114.282 101.029 113.768C100.687 113.255 100.173 113.01 99.4155 113.01C99.0244 113.01 98.7066 113.084 98.4377 113.206C98.1688 113.353 97.9488 113.548 97.7777 113.793C97.6066 114.062 97.4844 114.379 97.411 114.746C97.3377 115.137 97.2888 115.577 97.2888 116.066C97.2888 117.093 97.4599 117.85 97.8021 118.364C98.1444 118.877 98.6821 119.122 99.4155 119.122C100.124 119.122 100.662 118.877 101.004 118.388C101.347 117.899 101.518 117.117 101.518 116.09ZM102.08 116.09C102.08 116.628 102.031 117.093 101.933 117.533C101.835 117.973 101.689 118.339 101.469 118.633C101.249 118.95 100.98 119.17 100.638 119.342C100.295 119.513 99.8799 119.586 99.391 119.586C98.9021 119.586 98.4866 119.513 98.1444 119.342C97.8021 119.17 97.5333 118.926 97.3133 118.633C97.0933 118.315 96.9466 117.948 96.8488 117.533C96.751 117.093 96.7021 116.628 96.7021 116.09C96.7021 115.577 96.751 115.113 96.8488 114.673C96.9466 114.233 97.0933 113.866 97.3133 113.548C97.5333 113.23 97.8021 112.986 98.1444 112.815C98.4866 112.644 98.9021 112.546 99.391 112.546C99.8555 112.546 100.271 112.619 100.613 112.79C100.955 112.962 101.224 113.182 101.444 113.499C101.664 113.817 101.811 114.184 101.933 114.624C102.031 115.064 102.08 115.553 102.08 116.115V116.09Z" fill="#595858"/>
<path d="M106.578 112.742H110.709V113.206H107.14V119.415H106.578V112.742Z" fill="#595858"/>
<path d="M115.011 119.415H114.4V112.742H114.938V118.608L118.482 112.742H119.093V119.415H118.531V113.573L115.011 119.415Z" fill="#595858"/>
<path d="M124.202 114.599C124.202 114.868 124.227 115.088 124.276 115.259C124.325 115.431 124.422 115.602 124.545 115.699C124.667 115.822 124.838 115.895 125.058 115.968C125.278 116.017 125.547 116.042 125.889 116.042H127.356V113.206H125.938C125.596 113.206 125.327 113.231 125.082 113.279C124.862 113.328 124.691 113.402 124.545 113.524C124.422 113.646 124.325 113.768 124.276 113.964C124.227 114.135 124.202 114.355 124.202 114.599ZM125.889 116.506H125.645C125.571 116.506 125.498 116.506 125.4 116.482L123.787 119.415H123.2L124.887 116.408C124.447 116.311 124.129 116.115 123.934 115.822C123.738 115.528 123.64 115.113 123.64 114.575C123.64 114.233 123.689 113.964 123.787 113.719C123.885 113.475 124.007 113.304 124.202 113.157C124.398 113.011 124.618 112.913 124.911 112.839C125.205 112.766 125.522 112.742 125.914 112.742H127.918V119.415H127.38V116.506H125.914H125.889Z" fill="#595858"/>
<path d="M106.651 0.71222C107.8 0.0766644 106.749 -0.0211134 106.431 0.00333106C100.613 0.541109 35.3219 22.4922 45.2464 46.0811C53.6553 66.0278 81.5708 61.75 86.533 61.1633C86.8508 61.1144 86.973 60.8211 86.7286 60.65C83.5019 58.3522 66.2197 48.8678 67.4175 36.9633C68.9575 21.6611 101.664 3.47444 106.651 0.71222Z" fill="#6D3D8D"/>
<path d="M72.8687 37.0365C73.9932 25.0587 99.0732 6.62763 106.138 2.76541C107.238 2.1543 108.118 2.61874 108.411 4.32985C113.838 34.421 92.6932 60.4054 88.0487 59.1098C84.3821 58.0832 71.9643 46.521 72.8687 37.0365Z" fill="#D4B2D5"/>
</svg>
